<svg xmlns="http://www.w3.org/2000/svg" xmlns:xlink="http://www.w3.org/1999/xlink" viewBox="0 0 278.8617 101.8462"><defs><linearGradient id="linear-gradient" x1="88.0793" y1="80.5264" x2="2.47" y2="80.5264" gradientUnits="userSpaceOnUse"><stop offset="0" stop-color="#7b1c58"/><stop offset="1" stop-color="#7276b1"/></linearGradient></defs><g id="Layer_2" data-name="Layer 2"><g id="Components"><g id="_9f9bd508-be80-4c79-915f-fac0c546413d_1" data-name="9f9bd508-be80-4c79-915f-fac0c546413d@1"><path d="M53.4587,97.1782a4.7647,4.7647,0,0,0-1.4491.799c-1.7537,1.5115-.1221,3.3905,3.2937,3.7934,4.2828.5051,6.75-1.6183,5.257-3.4935C59.5064,96.9531,56.5619,96.18,53.4587,97.1782Z" style="fill:#f4c47f"/><path d="M84.2821,82.8083c-3.5244,2.0714-5.0586,5.9483-3.979,7.7771,1.5392,2.6072,6.3849-1.2172,7.5308-5.1215C88.5568,83.0005,87.4043,81.2848,84.2821,82.8083Z" style="fill:#7276b1"/><path d="M96.2476,75.9777c-3.1124,2.3175-5.11,7.7254-4.588,9.1337.5555,1.4974,3.8407-2.2082,5.4233-5.6407a10.7439,10.7439,0,0,0,.6839-1.8659C97.8433,77.2963,98.4508,74.63,96.2476,75.9777Z" style="fill:url(#linear-gradient)"/><path d="M35.0477,88.2335a5.5164,5.5164,0,0,0-1.3657.6607c-2.8834,2.0763-.2269,6.059,4.66,6.9861,4.8966.929,7.458-2.0911,5.5694-4.917C42.7122,89.17,39.17,87.137,35.0477,88.2335Z" style="fill:#7276b1"/><path d="M54.2894,80.7737c-5.3664,2.4471-5.3276,7.0947-1.3816,8.9111,5.1733,2.3813,11.8533-1.666,10.359-6.2763C62.5555,81.2145,59.3,78.9466,54.2894,80.7737Z" style="fill:#7276b1"/><path d="M102.9939,53.9061c-3.3352,3.1669-4.0734,11.31-2.3837,13.11,1.647,1.7543,4.2489-3.2559,4.8386-8.1046C105.826,55.81,105.3136,52.2072,102.9939,53.9061Z" style="fill:#f4c47f"/><path d="M22.0876,28.3067C17.755,30.1238,16.9257,35.97,19.6781,38.27c3.4571,2.8884,9.0963-1.2212,8.3808-6.1073A4.5263,4.5263,0,0,0,22.0876,28.3067Z" style="fill:#f4c47f"/><path d="M38.6153,21.1965c-4.9911,2.5334-4.2962,8.8724-.02,10.5,4.7745,1.8174,9.7772-2.8842,7.8719-7.3981A6.0332,6.0332,0,0,0,38.6153,21.1965Z" style="fill:#7276b1"/><path d="M73.1535,14.889c3.8782-.0492,4.6458-3.7162,1.392-6.65-1.8816-1.6967-5.699-3.4087-8.2943-1.9024-.0883.07-.2119.157-.2944.2339C63.2181,9.12,68.2625,14.9511,73.1535,14.889Z" style="fill:#f4c47f"/><path d="M83.1175,7.12c1.8382-.3909.6224-2.8475-2.4547-4.96C78.6522.7805,75.2967-.6923,74.1321.3544,72.7167,2.5839,80.5314,7.67,83.1175,7.12Z" style="fill:#7276b1"/><path d="M2.3672,53.5276c-3.7042.93-2.7037,8.8063.5383,10.9,2.5346,1.637,4.7707-1.25,4.1255-5.3262C6.6451,56.6646,4.9431,53.3243,2.3672,53.5276Z" style="fill:#f4c47f"/><path d="M17.254,49.2728c-5.1278,1.9251-5.0246,8.8639-.9812,11.4616,4.3046,2.7656,9.4345-1.3494,8.3164-6.6713C24.0374,51.4371,21.3969,48.2148,17.254,49.2728Z" style="fill:#7276b1"/><path d="M36.8121,41.6211c-6.2552,2.8982-6.1631,9.9677-1.3812,12.3928,5.6264,2.8534,12.5839-2.5525,10.7892-8.3831C45.43,43.0633,42.1767,39.7044,36.8121,41.6211Z" style="fill:#7276b1"/><path d="M91.6488,26.8017c4.0123.8545,4.9907-3.8738,1.7743-8.5752-1.6262-2.3771-5.1911-5.4541-7.8338-3.5914C82.3378,17.88,86.9883,25.809,91.6488,26.8017Z" style="fill:#7276b1"/><path d="M32.9553,66.02c-6.7954,2.8235-5.8529,10.3567-.1272,12.9555,6.4186,2.9134,13.6243-2.2774,11.5074-8.29C43.2568,67.6221,39.0131,64.149,32.9553,66.02Z" style="fill:#f4c47f"/><path d="M96.6728,51.8622a2.0252,2.0252,0,0,0-.2144.2144,9.6889,9.6889,0,0,0-2.1555,6.1768,6.2976,6.2976,0,0,0,1.126,3.8605,5.3029,5.3029,0,0,1,.9866,3.9463c-.3,4.59-3.86,9.2651-6.9167,9.2651a2.9315,2.9315,0,0,1-2.252-1.0938c-1.63-1.6514-4.8685.0644-6.0909,3.2171-2.5094,6.4877-9.9837,7.3027-11.8067,2.6487a5.22,5.22,0,0,1-.2467-2.4557c.4611-4.6755-3.71-7.485-9.0828-6.1338a.0105.0105,0,0,1-.0108.0107,9.1259,9.1259,0,0,1-6.7343-.3c-6.016-2.7452-5.5549-10.6807.4611-14.1122A8.293,8.293,0,0,0,57.8,50.1786a7.4177,7.4177,0,0,0-2.8418-5.8229c-3.7746-3.0348-3.8712-9.1473,1.4691-12.1177a8.0747,8.0747,0,0,1,3.3887-.7828,7.9513,7.9513,0,0,1,3.6782.9436c3.3029,1.6837,6.82-.2251,6.82-3.6674V28.592c.0214.15.0429.2788.0643.4182a6.3379,6.3379,0,0,1,2.7882-6.3912c4.343-2.2842,8.5681.7291,10.1766,3.6031,3.1313,5.5655-.9008,11.6029-6.7344,10.0909a7.6784,7.6784,0,0,1-2.7666-1.3619,6.7269,6.7269,0,0,0,.5576.4075v.0107a4.7072,4.7072,0,0,0-7.1741,3.7532,7.2319,7.2319,0,0,1-3.0347,5.34c-.0108,0-.0108,0-.0108.0107-3.9462,2.8739-5.1259,9.0614-.7721,12.7611a7.2963,7.2963,0,0,1,2.756,3.6246,7.4008,7.4008,0,0,1,.3217,3.3886c-.3217,4.9865,3.646,8.1392,8.6,6.7558a5.3642,5.3642,0,0,1,4.8363.5577c0-.0108-.0107-.0108-.0107-.0215,2.2841,1.5657,5.4261-.1608,6.5092-3.55a11.3734,11.3734,0,0,1,3.6138-5.6192c2.9169-2.3377,4.0107-7.6887,1.0724-10.37a5.9741,5.9741,0,0,1-1.04-1.04,2.1708,2.1708,0,0,0,.1931.2466v.0107c-1.7909-1.8444-4.3.1073-4.5254,2.7238,0,.0214-.0108.0322-.0108.0429C84.92,62.65,75.8369,65.6312,71.4617,60.4946c-3.2171-3.764-2.5093-10.82,3.1956-14.2731C77.8744,44.6452,80.77,44.999,83.29,47.24a2.6515,2.6515,0,0,0,1.823.7613c1.4155,0,2.7774-1.2439,2.82-3.4744.0107.1394.0322.2681.0322.4075-.15-3.024.7935-6.1446,3.1527-7.9033,4-2.3592,7.0132,1.5228,7.8711,5.04C99.9757,46.1465,98.7854,50.007,96.6728,51.8622Z" style="fill:#7b1c58"/><path d="M133.2667,33.4738H121.8038V14.4609h11.38v3.2515H125.772V22.066h5.9242v3.2789H125.772v4.8773h7.4947Z" style="fill:#7b1c58"/><path d="M135.1954,19.2h3.8851v9.5065c0,1.24.4685,1.8187,1.6258,1.8187a5.742,5.742,0,0,0,2.59-.744V19.2h3.8851V33.4738h-3.5544v-1.13a8.1646,8.1646,0,0,1-4.3815,1.4607c-2.4245,0-4.05-1.3776-4.05-4.464Z" style="fill:#7b1c58"/><path d="M149.8815,33.4738V19.2h3.5544l.0552,2.0664c1.1851-1.9286,2.2594-2.425,3.8026-2.425a2.4248,2.4248,0,0,1,.7166.0831l-.3034,3.444a5.58,5.58,0,0,0-1.1846-.11,3.6929,3.6929,0,0,0-2.7557,1.3224v9.8924Z" style="fill:#7b1c58"/><path d="M165.147,18.8418c4.85,0,6.5578,2.3146,6.5578,7.4674,0,4.8773-1.9565,7.4953-6.5578,7.4953-4.8221,0-6.5309-2.3146-6.5309-7.4953C158.6161,21.4319,160.5726,18.8418,165.147,18.8418Zm0,2.9487c-1.9844,0-2.5906,1.2672-2.5906,4.5187,0,3.2794.6062,4.5193,2.5906,4.5193,2.0112,0,2.59-1.24,2.59-4.5193C167.7371,23.0577,167.1582,21.7905,165.147,21.7905Z" style="fill:#7b1c58"/><path d="M180.7149,33.8045a6.7292,6.7292,0,0,1-3.0312-.7167v6.0073l-3.8852.3581V19.1726h3.4167v1.35a6.6775,6.6775,0,0,1,4.271-1.681c3.6375,0,5.0151,2.232,5.0151,7.4674C186.5013,31.27,184.38,33.8045,180.7149,33.8045ZM177.6837,23.03v7.2745a7.018,7.018,0,0,0,2.2046.4685c1.8735,0,2.6727-1.13,2.6727-4.4641,0-3.4166-.6063-4.2984-2.1216-4.2984A5.0924,5.0924,0,0,0,177.6837,23.03Z" style="fill:#7b1c58"/><path d="M194.4914,18.8418c4.0781,0,5.8695,2.0391,5.8695,6.3932,0,.6336,0,1.2672-.0552,1.9286h-8.2393c.0279,2.6727.5516,3.5823,3.0864,3.5823a13.8566,13.8566,0,0,0,4.1333-.7166l.8266,2.783a14.8589,14.8589,0,0,1-5.4836.9922c-5.0424,0-6.4752-2.2594-6.4752-7.3849C188.1539,21.5423,190.0552,18.8418,194.4914,18.8418Zm-2.425,5.8143h4.63c0-2.1216-.4964-2.976-2.2321-2.976S192.1216,22.5066,192.0664,24.6561Z" style="fill:#7b1c58"/><path d="M201.7937,29.423c0-2.7278,1.35-4.1606,3.9677-4.464,1.1026-.1378,2.5354-.1925,3.7752-.22V23.747c0-1.4333-.6615-1.9013-2.2047-1.9013a18.6012,18.6012,0,0,0-4.1606.6063l-.5511-2.8383a19.6525,19.6525,0,0,1,5.4284-.7719c3.3893,0,5.2906,1.1852,5.2906,4.3815v10.25h-3.362l-.0273-1.1573a6.2855,6.2855,0,0,1-3.9956,1.488C203.1986,33.8045,201.7937,32.2891,201.7937,29.423Zm5.2906,1.5432a4.7768,4.7768,0,0,0,2.4523-.7713v-2.976l-2.0943.0552c-1.3223.0273-1.8739.6609-1.8739,2.0112C205.5684,30.553,206.1473,30.9662,207.0843,30.9662Z" style="fill:#7b1c58"/><path d="M215.9566,33.4738V19.2h3.5544l.0279,1.3224a8.5378,8.5378,0,0,1,4.6565-1.681c2.1768,0,4.0234,1.1852,4.0234,4.3536V33.4738h-3.8857V23.9121c0-1.3776-.744-1.7909-1.5979-1.7909a6.3785,6.3785,0,0,0-2.8934.9365V33.4738Z" style="fill:#7b1c58"/><path d="M128.3069,60.5949c-5.4836,0-6.9716-3.4172-6.9716-9.7273,0-6.9437,2.5627-9.9471,7.8533-9.9471a23.8632,23.8632,0,0,1,5.5109.6336l-.8817,3.2516a22.4327,22.4327,0,0,0-4.4914-.5511c-2.9482,0-3.9125,1.7636-3.9125,6.5031,0,4.9325.9643,6.53,3.5271,6.53a11.0265,11.0265,0,0,0,2.5348-.2481V52.8241H128.61V49.6278h6.613v9.81A17.3577,17.3577,0,0,1,128.3069,60.5949Z" style="fill:#7b1c58"/><path d="M143.6271,45.6322c4.0781,0,5.8695,2.0391,5.8695,6.3932,0,.6336,0,1.2672-.0552,1.9286h-8.2393c.0279,2.6727.5515,3.5823,3.0864,3.5823a13.8566,13.8566,0,0,0,4.1333-.7166l.8266,2.783a14.8589,14.8589,0,0,1-5.4836.9922c-5.0424,0-6.4752-2.2594-6.4752-7.3849C137.29,48.3327,139.1909,45.6322,143.6271,45.6322Zm-2.425,5.8143h4.63c0-2.1216-.4963-2.976-2.232-2.976S141.2573,49.297,141.2021,51.4465Z" style="fill:#7b1c58"/><path d="M151.6177,60.2642V45.9908h3.5544l.0278,1.3224a8.5378,8.5378,0,0,1,4.6565-1.681c2.1768,0,4.0234,1.1852,4.0234,4.3536V60.2642h-3.8856V50.7025c0-1.3776-.744-1.7909-1.5979-1.7909a6.3789,6.3789,0,0,0-2.8935.9365V60.2642Z" style="fill:#7b1c58"/><path d="M172.4209,45.6322c4.85,0,6.5578,2.3146,6.5578,7.4674,0,4.8773-1.9565,7.4953-6.5578,7.4953-4.8221,0-6.5309-2.3146-6.5309-7.4953C165.89,48.2223,167.8465,45.6322,172.4209,45.6322Zm0,2.9487c-1.9843,0-2.5906,1.2672-2.5906,4.5187,0,3.2794.6063,4.5193,2.5906,4.5193,2.0112,0,2.59-1.24,2.59-4.5193C175.011,49.8481,174.4321,48.5809,172.4209,48.5809Z" style="fill:#7b1c58"/><path d="M181.073,60.2642V45.9908h3.5544l.0278,1.3224a8.5378,8.5378,0,0,1,4.6565-1.681,3.7754,3.7754,0,0,1,3.5,1.8466,8.6452,8.6452,0,0,1,4.8773-1.8466c2.1769,0,4.0229,1.1852,4.0229,4.3536V60.2642h-3.8851V50.7025c0-1.3776-.744-1.7909-1.5984-1.7909a6.3793,6.3793,0,0,0-2.893.9365V60.2642H189.45V50.7025c0-1.3776-.744-1.7909-1.5979-1.7909a6.3789,6.3789,0,0,0-2.8935.9365V60.2642Z" style="fill:#7b1c58"/><path d="M206.2293,40.094a2.2223,2.2223,0,0,1,2.2321,2.232,2.1992,2.1992,0,0,1-2.2321,2.2041,2.1759,2.1759,0,0,1-2.2041-2.2041A2.1991,2.1991,0,0,1,206.2293,40.094Zm1.9565,5.8968V60.2642h-3.8851V45.9908Z" style="fill:#7b1c58"/><path d="M216.6728,45.6322a16.7344,16.7344,0,0,1,3.9677.4685l-.7441,2.9487a17.4744,17.4744,0,0,0-2.976-.3307c-1.7083,0-2.6174,1.1572-2.6174,4.3809,0,3.3893.7161,4.3263,2.7005,4.3263a11.5981,11.5981,0,0,0,3.0859-.4406l.744,2.9208a13.916,13.916,0,0,1-4.5192.6888c-4.381,0-6.0068-2.2594-6.0068-7.5226C210.3074,48.25,212.4564,45.6322,216.6728,45.6322Z" style="fill:#7b1c58"/><path d="M227.06,60.2642V41.2513h6.5582a7.7013,7.7013,0,0,1,5.0977,1.4328c1.9565,1.6531,2.232,4.6843,2.232,7.8254,0,3.913-.6063,6.5583-2.15,8.0737a6.9137,6.9137,0,0,1-5.07,1.681Zm3.9682-15.7614v12.51h2.48c2.26,0,3.4724-1.1021,3.4724-6.42,0-5.2354-1.1851-6.0893-3.83-6.0893Z" style="fill:#7b1c58"/><path d="M242.5179,56.2134c0-2.7278,1.35-4.1606,3.9677-4.464,1.1026-.1378,2.5354-.1925,3.7753-.22v-.9917c0-1.4333-.6615-1.9013-2.2047-1.9013a18.6031,18.6031,0,0,0-4.1607.6063l-.551-2.8383a19.6523,19.6523,0,0,1,5.4283-.7719c3.3894,0,5.2906,1.1852,5.2906,4.3815V60.2642h-3.3619l-.0274-1.1573a6.2851,6.2851,0,0,1-3.9955,1.488C243.9229,60.5949,242.5179,59.08,242.5179,56.2134Zm5.2906,1.5432a4.7768,4.7768,0,0,0,2.4524-.7713v-2.976l-2.0943.0552c-1.3224.0273-1.8739.6609-1.8739,2.0112C246.2927,57.3434,246.8716,57.7566,247.8085,57.7566Z" style="fill:#7b1c58"/><path d="M257.5074,48.939h-1.9838V46.1007l2.1495-.11.1377-3.3619,3.5818-.3581v3.72h3.3067v2.9208h-3.3067v7.0815c0,1.13.2755,1.5432,1.1573,1.5432a5.5663,5.5663,0,0,0,1.9291-.3307l.6063,2.7278a10.0653,10.0653,0,0,1-3.8852.6615c-2.5627,0-3.6927-1.2125-3.6927-3.6375Z" style="fill:#7b1c58"/><path d="M265.8561,56.2134c0-2.7278,1.35-4.1606,3.9677-4.464,1.1021-.1378,2.5354-.1925,3.7752-.22v-.9917c0-1.4333-.6614-1.9013-2.2047-1.9013a18.6021,18.6021,0,0,0-4.1606.6063l-.5511-2.8383a19.6531,19.6531,0,0,1,5.4284-.7719c3.3893,0,5.2906,1.1852,5.2906,4.3815V60.2642H274.04l-.0273-1.1573a6.2855,6.2855,0,0,1-3.9956,1.488C267.261,60.5949,265.8561,59.08,265.8561,56.2134Zm5.2906,1.5432a4.7765,4.7765,0,0,0,2.4523-.7713v-2.976l-2.0942.0552c-1.3224.0273-1.874.6609-1.874,2.0112C269.6308,57.3434,270.21,57.7566,271.1467,57.7566Z" style="fill:#7b1c58"/><path d="M125.772,68.0417V87.0546h-3.9682V68.0417Z" style="fill:#7b1c58"/><path d="M128.4993,87.0546V72.7812h3.5544l.0279,1.3224a8.5375,8.5375,0,0,1,4.6565-1.681c2.1768,0,4.0234,1.1852,4.0234,4.3536V87.0546h-3.8857V77.4929c0-1.3776-.744-1.7909-1.5979-1.7909a6.3793,6.3793,0,0,0-2.8935.9365V87.0546Z" style="fill:#7b1c58"/><path d="M148.4208,66.6914a17.4258,17.4258,0,0,1,3.0034.22l-.4959,2.8935c-.5236-.0279-1.0747-.0831-1.6257-.0831-.91,0-1.24.386-1.24,1.4607v1.5984h3.0039V75.702h-3.0039V87.0546h-3.8851V75.7294h-1.9565V72.7812h2.0117v-2.26C144.2323,68.3724,145.5825,66.6914,148.4208,66.6914Z" style="fill:#7b1c58"/><path d="M152.6088,87.0546V72.7812h3.5544l.0552,2.0664c1.1852-1.9286,2.2594-2.425,3.8026-2.425a2.4255,2.4255,0,0,1,.7167.0831l-.3034,3.444a5.5806,5.5806,0,0,0-1.1846-.11,3.693,3.693,0,0,0-2.7558,1.3224v9.8924Z" style="fill:#7b1c58"/><path d="M161.4817,83.0038c0-2.7278,1.35-4.1606,3.9677-4.464,1.102-.1378,2.5354-.1925,3.7752-.22v-.9917c0-1.4333-.6615-1.9013-2.2047-1.9013a18.6012,18.6012,0,0,0-4.1606.6063l-.5511-2.8383a19.6525,19.6525,0,0,1,5.4284-.7719c3.3893,0,5.2906,1.1852,5.2906,4.3815v10.25h-3.362l-.0273-1.1573a6.2855,6.2855,0,0,1-3.9956,1.488C162.8866,87.3853,161.4817,85.87,161.4817,83.0038Zm5.2906,1.5432a4.7768,4.7768,0,0,0,2.4523-.7713V80.8l-2.0943.0552c-1.3224.0273-1.8739.6609-1.8739,2.0112C165.2564,84.1338,165.8353,84.547,166.7723,84.547Z" style="fill:#7b1c58"/><path d="M175.5342,83.7757a19.5946,19.5946,0,0,0,4.2437.5784c1.6531,0,2.2594-.4407,2.2594-1.46,0-.8271-.4406-1.0747-1.6258-1.3229l-1.7083-.3029c-2.37-.4411-3.4445-1.5158-3.4445-4.1885,0-3.2515,2.0942-4.657,5.4562-4.657a24.9616,24.9616,0,0,1,4.4635.4133l-.7987,2.9487a21.2789,21.2789,0,0,0-3.61-.386c-1.3776,0-1.9013.4412-1.9013,1.2677,0,.7993.3307.937,1.35,1.1573l1.7914.3308c2.5628.5231,3.637,1.7356,3.637,4.2158,0,3.1138-1.6531,5.0151-5.8138,5.0151a19.1959,19.1959,0,0,1-4.8221-.551Z" style="fill:#7b1c58"/><path d="M188.4573,75.7294h-1.9838V72.8911l2.1494-.11.1378-3.3619,3.5817-.3581v3.72h3.3068V75.702h-3.3068v7.0815c0,1.13.2756,1.5432,1.1573,1.5432a5.5672,5.5672,0,0,0,1.9292-.3307l.6062,2.7278a10.0643,10.0643,0,0,1-3.8851.6615c-2.5628,0-3.6927-1.2125-3.6927-3.6375Z" style="fill:#7b1c58"/><path d="M197.4947,87.0546V72.7812h3.5545l.0552,2.0664c1.1851-1.9286,2.2593-2.425,3.8025-2.425a2.4251,2.4251,0,0,1,.7167.0831L205.32,75.95a5.5806,5.5806,0,0,0-1.1846-.11,3.6928,3.6928,0,0,0-2.7557,1.3224v9.8924Z" style="fill:#7b1c58"/><path d="M207.0559,72.7812h3.8851v9.5065c0,1.24.4685,1.8187,1.6258,1.8187a5.7416,5.7416,0,0,0,2.59-.744V72.7812h3.8851V87.0546h-3.5544v-1.13a8.164,8.164,0,0,1-4.3815,1.4607c-2.4244,0-4.05-1.3776-4.05-4.464Z" style="fill:#7b1c58"/><path d="M227.5563,72.4226a16.7337,16.7337,0,0,1,3.9677.4685L230.78,75.84a17.4756,17.4756,0,0,0-2.976-.3307c-1.7084,0-2.6175,1.1572-2.6175,4.3809,0,3.3893.7162,4.3263,2.7005,4.3263a11.5975,11.5975,0,0,0,3.0859-.4406l.7441,2.9208a13.9167,13.9167,0,0,1-4.5193.6888c-4.381,0-6.0067-2.2594-6.0067-7.5226C221.191,75.0406,223.34,72.4226,227.5563,72.4226Z" style="fill:#7b1c58"/><path d="M234.2513,75.7294h-1.9838V72.8911l2.1494-.11.1378-3.3619,3.5818-.3581v3.72h3.3067V75.702h-3.3067v7.0815c0,1.13.2755,1.5432,1.1572,1.5432a5.5672,5.5672,0,0,0,1.9292-.3307l.6062,2.7278a10.0643,10.0643,0,0,1-3.8851.6615c-2.5627,0-3.6927-1.2125-3.6927-3.6375Z" style="fill:#7b1c58"/><path d="M243.2062,72.7812h3.8852v9.5065c0,1.24.4684,1.8187,1.6257,1.8187a5.7416,5.7416,0,0,0,2.59-.744V72.7812h3.8851V87.0546h-3.5544v-1.13a8.1639,8.1639,0,0,1-4.3814,1.4607c-2.4245,0-4.05-1.3776-4.05-4.464Z" style="fill:#7b1c58"/><path d="M257.8923,87.0546V72.7812h3.5544l.0553,2.0664c1.1851-1.9286,2.2593-2.425,3.8025-2.425a2.4251,2.4251,0,0,1,.7167.0831l-.3034,3.444a5.5806,5.5806,0,0,0-1.1846-.11,3.6928,3.6928,0,0,0-2.7557,1.3224v9.8924Z" style="fill:#7b1c58"/><path d="M272.9923,72.4226c4.0781,0,5.8694,2.0391,5.8694,6.3932,0,.6336,0,1.2672-.0552,1.9287h-8.2392c.0278,2.6726.5515,3.5822,3.0864,3.5822a13.8566,13.8566,0,0,0,4.1333-.7166l.8266,2.783a14.8593,14.8593,0,0,1-5.4836.9922c-5.0424,0-6.4752-2.2594-6.4752-7.3849C266.6548,75.1231,268.5561,72.4226,272.9923,72.4226Zm-2.425,5.8143h4.63c0-2.1216-.4963-2.976-2.232-2.976S270.6225,76.0874,270.5673,78.2369Z" style="fill:#7b1c58"/></g></g></g></svg>